<?xml version="1.0" encoding="utf-8"?>
<!-- Generator: Adobe Illustrator 19.0.0, SVG Export Plug-In . SVG Version: 6.00 Build 0)  -->
<svg version="1.1" id="Layer_1" xmlns="http://www.w3.org/2000/svg" xmlns:xlink="http://www.w3.org/1999/xlink" x="0px" y="0px"
	 viewBox="-421 475.9 156.3 51.1" style="enable-background:new -421 475.9 156.3 51.1;" xml:space="preserve">
<style type="text/css">
	.st0{fill:#2083EF;}
</style>
<g id="XMLID_1_">
	<path id="XMLID_20_" class="st0" d="M-420.2,649c-0.9,0.2-0.8-0.3-0.8-0.9c0-12.2,0-24.3,0-36.5c0.8-0.5,1,0.1,1.1,0.7
		c0.2,0.9,0.2,1.8,0.4,2.7c1.7,8.7,5.5,16.4,12.3,22.3c4.8,4.3,10.5,6.4,17,6.5c2.7,0.1,5.4-0.2,8-1.1c6.6-2.3,10.2-8.5,9.4-15.7
		c-0.7-6.7-4.4-11.6-9.4-15.7c-4.1-3.3-8.6-6-13-8.7c-4.6-2.8-9.2-5.6-13.4-9.1c-4.5-3.8-8.2-8.1-10.2-13.7
		c-5.2-14.6,0.5-30.4,15.8-36.9c4-1.7,8.1-2.8,12.5-2.7c0.2,0,0.3,0,0.5-0.1c12.6,0,25.1,0,37.7,0c0.8,0.8,1.3,1.9,1.8,2.9
		c2.8,5.4,5.6,10.8,8.4,16.2c5.8,11,11.5,22.1,17.3,33.1c1.2,2.2,2.1,4.4,3.5,6.6c0.4-0.3,0.5-0.8,0.7-1.2
		c6.9-16.9,14-33.8,20.9-50.8c0.8-1.9,1.5-3.7,2.3-5.6c0.2-0.5,0.4-1,0.9-1.3c10.5,0,21.1,0,31.6,0c0.4,0.8-0.1,1.1-0.7,1.1
		c-0.8,0.1-1.6,0.2-2.5,0.4c-2.2,0.6-3.6,2-4.3,4.1c-0.7,1.9-1,3.9-1,5.9c0,27.2,0,54.3,0,81.5c0,1.8,0.3,3.5,0.8,5.2
		c0.8,2.9,2.6,4.5,5.5,5c0.3,0,0.5,0.1,0.8,0.1c0.6,0.1,1.7-0.2,1.6,0.9c-0.1,0.9-1,0.7-1.6,0.7c-12.6,0-25.1,0-37.7,0
		c-0.1,0-0.2,0-0.3,0c-0.6-0.1-1.4,0.1-1.5-0.7c-0.1-0.9,0.8-0.8,1.4-0.8c1.2-0.2,2.4-0.3,3.5-0.9c1.8-1.1,2.8-2.8,3.2-4.8
		c0.5-2.4,0.8-4.8,0.8-7.3c0-28.4,0-56.8,0-85.2c0-0.8,0-1.5,0.1-2.1c0,0.3-0.2,0.8-0.4,1.3c-7.3,17.8-14.7,35.6-22,53.4
		c-3,7.2-5.9,14.4-8.9,21.5c-0.8,2-3,2.9-5,2c-0.5-0.2-0.7-0.6-0.9-1.1c-4.7-8.8-9.5-17.6-14.3-26.4c-4.3-8-8.7-16-13.1-24
		c-3.2-5.8-6.2-11.6-9.6-17.2c-2.5-4.1-5.7-7.7-9.9-10.1c-3.4-2-10.3-1.1-13.7,1.9c-5.9,5.2-6.9,15.2-1,22.3c2.3,2.8,5.1,5,8,7
		c4.9,3.4,10.2,6.4,15.3,9.6c5,3.2,9.8,6.6,13.9,11c6,6.5,8.5,14.1,7.6,22.8c-1.4,13.8-10.8,22.8-23.5,26.3
		c-7.6,2.1-15.3,2.3-23.1,1.2c-4-0.6-7.8-1.5-11.7-2.5c-1.7-0.4-3.4-0.7-5.2-0.6c-2.9,0.2-4.4,1.6-5,4.4
		C-419.7,647.1-419.6,648.1-420.2,649z"/>
</g>
</svg>
